name C:\Users\r0593348\3dpredictsim\Results\Batchsim_tmt_linear\Pog_s1_tmt_aCst_d05_k500_ig24.mot
datacolumns 128
datarows 4
range 0.00000000 0.03220401
endheader
time	pelvis_tilt	pelvis_list	pelvis_rotation	pelvis_tx	pelvis_ty	pelvis_tz	hip_flexion_l	hip_adduction_l	hip_rotation_l	hip_flexion_r	hip_adduction_r	hip_rotation_r	knee_angle_l	knee_angle_r	ankle_angle_l	ankle_angle_r	subtalar_angle_l	subtalar_angle_r	tmt_angle_l	tmt_angle_r	mtp_angle_l	mtp_angle_r	lumbar_extension	lumbar_bending	lumbar_rotation	arm_flex_l	arm_add_l	arm_rot_l	arm_flex_r	arm_add_r	arm_rot_r	elbow_flex_l	elbow_flex_r	pro_sup_l	pro_sup_r	glut_med1_l/activation	glut_med2_l/activation	glut_med3_l/activation	glut_min1_l/activation	glut_min2_l/activation	glut_min3_l/activation	semimem_l/activation	semiten_l/activation	bifemlh_l/activation	bifemsh_l/activation	sar_l/activation	add_long_l/activation	add_brev_l/activation	add_mag1_l/activation	add_mag2_l/activation	add_mag3_l/activation	tfl_l/activation	pect_l/activation	grac_l/activation	glut_max1_l/activation	glut_max2_l/activation	glut_max3_l/activation	iliacus_l/activation	psoas_l/activation	quad_fem_l/activation	gem_l/activation	peri_l/activation	rect_fem_l/activation	vas_med_l/activation	vas_int_l/activation	vas_lat_l/activation	med_gas_l/activation	lat_gas_l/activation	soleus_l/activation	tib_post_l/activation	flex_dig_l/activation	flex_hal_l/activation	tib_ant_l/activation	per_brev_l/activation	per_long_l/activation	per_tert_l/activation	ext_dig_l/activation	ext_hal_l/activation	ercspn_l/activation	intobl_l/activation	extobl_l/activation	glut_med1_r/activation	glut_med2_r/activation	glut_med3_r/activation	glut_min1_r/activation	glut_min2_r/activation	glut_min3_r/activation	semimem_r/activation	semiten_r/activation	bifemlh_r/activation	bifemsh_r/activation	sar_r/activation	add_long_r/activation	add_brev_r/activation	add_mag1_r/activation	add_mag2_r/activation	add_mag3_r/activation	tfl_r/activation	pect_r/activation	grac_r/activation	glut_max1_r/activation	glut_max2_r/activation	glut_max3_r/activation	iliacus_r/activation	psoas_r/activation	quad_fem_r/activation	gem_r/activation	peri_r/activation	rect_fem_r/activation	vas_med_r/activation	vas_int_r/activation	vas_lat_r/activation	med_gas_r/activation	lat_gas_r/activation	soleus_r/activation	tib_post_r/activation	flex_dig_r/activation	flex_hal_r/activation	tib_ant_r/activation	per_brev_r/activation	per_long_r/activation	per_tert_r/activation	ext_dig_r/activation	ext_hal_r/activation	ercspn_r/activation	intobl_r/activation	extobl_r/activation	
          0.00000000	         -2.92963490	         -2.13836151	          5.32325868	          0.00000000	          0.85846125	         -0.00237118	        -18.11871181	         -1.58587196	          6.98944469	         31.70028411	          2.94947350	         -2.28557212	         -6.16642659	        -14.93396702	          1.10721856	          7.10922887	         10.01203038	         -2.12239953	          2.01624914	          0.07160252	         19.99610476	         -0.12263332	         -1.99783339	          0.49742320	         -1.89560977	          6.90276776	        -13.45092635	         14.86853043	         -9.13849428	        -13.50779209	          5.22887841	         36.28192995	         15.83895392	         86.51662706	         86.51662706	          0.31438980	          0.11351680	          0.08192409	          0.32779969	          0.22043349	          0.11386017	          0.05000405	          0.05000046	          0.05000032	          0.07800912	          0.11387427	          0.05000053	          0.05000038	          0.05000045	          0.05000108	          0.05000081	          0.32657026	          0.05000236	          0.05000093	          0.05001072	          0.05000422	          0.05000162	          0.38952398	          0.63363801	          0.05000029	          0.05000112	          0.05007518	          0.20968276	          0.05000255	          0.05000169	          0.05000183	          0.33189191	          0.44468574	          0.31687757	          0.27697405	          0.29481274	          0.38649816	          0.05000011	          0.05988854	          0.15970383	          0.05000074	          0.05000019	          0.05000058	          0.05000007	          0.05000003	          0.05000009	          0.05000149	          0.05000068	          0.05894400	          0.05000044	          0.05000056	          0.05000296	          0.05894570	          0.05894566	          0.21171414	          0.05000169	          0.05000873	          0.11204784	          0.18243868	          0.17728038	          0.15900953	          0.10937795	          0.05894599	          0.05016776	          0.05919090	          0.05861011	          0.06948990	          0.10262098	          0.05000044	          0.05000059	          0.19162797	          0.05000824	          0.05000127	          0.05000052	          0.09281874	          0.10058934	          0.08292493	          0.05641451	          0.05000498	          0.05894547	          0.05000025	          0.05000491	          0.05000985	          0.48821218	          0.36197614	          0.20970627	          0.25922672	          0.53440133	          0.23731456	          0.06949209	          0.11121266	          0.11386107	
          0.01073467	         -2.92502896	         -2.23525276	          5.60924559	          0.01596388	          0.85738926	         -0.00217310	        -17.98012602	         -1.88787965	          6.77447844	         31.13507451	          3.32486174	         -2.09787549	         -8.10707424	        -14.88282373	          0.36898307	          6.52535485	         10.95803606	         -2.60434724	          1.96055881	          0.08013812	         21.14693834	         -0.10387227	         -1.81322121	          0.72298545	         -1.97015320	          6.76671721	        -13.45662167	         15.11054454	        -10.11930293	        -13.49978402	          5.13385985	         37.35948756	         15.65998691	         86.51662706	         86.51662706	          0.26667833	          0.09628960	          0.06949149	          0.27805321	          0.18698075	          0.09658093	          0.05005347	          0.05000272	          0.05000642	          0.06617056	          0.09659319	          0.12953599	          0.07319417	          0.06954018	          0.05810790	          0.06949234	          0.27701046	          0.05020017	          0.05002893	          0.05001707	          0.05001237	          0.05002822	          0.33041012	          0.55668543	          0.05000806	          0.05896766	          0.05894601	          0.17786163	          0.05053509	          0.18655267	          0.18413099	          0.28152413	          0.37720051	          0.26878870	          0.24745027	          0.25007697	          0.32784628	          0.05000010	          0.05080019	          0.15572700	          0.05000038	          0.05000012	          0.05000045	          0.05000008	          0.06949185	          0.05000015	          0.05377489	          0.05000572	          0.05000039	          0.05894578	          0.05544728	          0.05000120	          0.05000024	          0.05000057	          0.17958502	          0.05000065	          0.05000315	          0.09699340	          0.15475693	          0.26055345	          0.17809184	          0.09278246	          0.05000093	          0.05002265	          0.05020928	          0.05000799	          0.05894507	          0.11664947	          0.05114537	          0.06948891	          0.52882222	          0.14350563	          0.10551556	          0.06949304	          0.19353275	          0.20070696	          0.17046478	          0.05000003	          0.05000008	          0.05000001	          0.05000167	          0.05894737	          0.05034887	          0.54578377	          0.32141107	          0.21934518	          0.42368395	          0.57012129	          0.22856379	          0.05894602	          0.09433509	          0.09658159	
          0.02146934	         -2.91656859	         -2.33203999	          5.87108898	          0.03223030	          0.85633091	         -0.00198909	        -17.77025434	         -2.18375296	          6.54551882	         30.43029413	          3.63975092	         -1.84045255	        -10.17339043	        -15.30796192	         -0.52246399	          5.92954948	         11.85901956	         -3.11145178	          1.86192608	         -0.04867848	         22.19449813	         -0.14592447	         -1.60553909	          0.95568650	         -2.03482920	          6.54736197	        -13.46009701	         15.29068173	        -11.12054164	        -13.49529027	          5.07406489	         38.39840342	         15.53041553	         86.51662706	         86.51662706	          0.35466410	          0.08167679	          0.05894562	          0.23585648	          0.15860480	          0.08192396	          0.05000725	          0.05000210	          0.05000201	          0.05612867	          0.08193486	          0.14691977	          0.13475839	          0.05898922	          0.05894825	          0.05894796	          0.23497314	          0.08532460	          0.05690787	          0.05008925	          0.05018786	          0.05894356	          0.28026758	          0.53258243	          0.05894504	          0.05002063	          0.05000065	          0.15086951	          0.09259023	          0.15824262	          0.15618929	          0.23880014	          0.31995674	          0.22799743	          0.20989752	          0.21212601	          0.27809290	          0.05000007	          0.05000104	          0.17868239	          0.05000029	          0.05000008	          0.05000037	          0.05626966	          0.05894581	          0.05230232	          0.26106474	          0.05000024	          0.26342171	          0.05000071	          0.05000041	          0.23671338	          0.07948304	          0.05000289	          0.16358173	          0.05000053	          0.05000173	          0.08227732	          0.21933139	          0.22101276	          0.15106844	          0.12623998	          0.05000165	          0.05897253	          0.13128116	          0.05000040	          0.05000043	          0.09894828	          0.05894539	          0.05894449	          0.44856845	          0.12172751	          0.15747106	          0.05894683	          0.16416242	          0.17024790	          0.14459521	          0.05894592	          0.05894612	          0.05894561	          0.05894553	          0.05000204	          0.05000447	          0.46295588	          0.33975295	          0.18605774	          0.35938679	          0.59020134	          0.19387716	          0.05000049	          0.10685724	          0.08192442	
          0.03220401	         -2.90590062	         -2.42794396	          6.10076112	          0.04863965	          0.85528898	         -0.00179502	        -17.46856470	         -2.46952555	          6.30988852	         29.59353148	          3.91415275	         -1.57247082	        -12.38143271	        -15.73535343	         -1.56108900	          5.47252079	         12.70008258	         -3.61796154	          1.74140786	         -0.02318314	         23.06308452	         -0.16666652	         -1.39151980	          1.19318116	         -2.09083082	          6.26689606	        -13.46750558	         15.42268692	        -12.10025328	        -13.49465299	          5.06411535	         39.39015184	         15.42451921	         86.51662706	         86.51662706	          0.30087474	          0.06928163	          0.05000040	          0.36438577	          0.13453523	          0.06949136	          0.05397602	          0.05000050	          0.05000046	          0.05000073	          0.06950342	          0.13095196	          0.11430783	          0.05003740	          0.05000359	          0.05000271	          0.25521296	          0.07238300	          0.05000161	          0.05000400	          0.05000224	          0.05000166	          0.23773476	          0.49409534	          0.05000035	          0.05000176	          0.05000130	          0.13423104	          0.07853953	          0.13422885	          0.13251137	          0.20255992	          0.27140025	          0.19339663	          0.17804366	          0.17993421	          0.23588990	          0.05000020	          0.09872671	          0.18280082	          0.05000051	          0.05000317	          0.05000074	          0.07841820	          0.05000023	          0.05000009	          0.31708589	          0.28262763	          0.34997082	          0.16185079	          0.20745083	          0.20079115	          0.06742093	          0.09397608	          0.13875672	          0.08192482	          0.05031217	          0.06979105	          0.18604582	          0.18747233	          0.12814311	          0.14676452	          0.05000110	          0.05002372	          0.11135895	          0.21540116	          0.16373599	          0.12326305	          0.05000028	          0.05000030	          0.38049408	          0.10325480	          0.13357400	          0.05000115	          0.13924968	          0.17768897	          0.12265226	          0.05000040	          0.05000063	          0.05000007	          0.05000005	          0.05893925	          0.05000324	          0.58278778	          0.40546287	          0.20689112	          0.62660460	          0.63999251	          0.31834912	          0.07368279	          0.09064275	          0.06949162	
